<svg xmlns="http://www.w3.org/2000/svg" xmlns:xlink="http://www.w3.org/1999/xlink" width="400" height="300" viewBox="0 0 400 300"><rect width="100%" height="100%" fill="#DDDDDD"/><path d="M83.04 154.89L95.14 154.89L95.14 141.89Q95.14 140.04 95.39 137.82L95.39 137.82L83.04 154.89ZM101.06 154.89L106.06 154.89L106.06 158.83Q106.06 159.38 105.70 159.78Q105.34 160.17 104.69 160.17L104.69 160.17L101.06 160.17L101.06 169.88L95.14 169.88L95.14 160.17L78.37 160.17Q77.68 160.17 77.16 159.75Q76.64 159.32 76.50 158.69L76.50 158.69L75.78 155.25L94.62 130.09L101.06 130.09L101.06 154.89ZM137.99 150L137.99 150Q137.99 155.20 136.87 159.03Q135.76 162.87 133.79 165.37Q131.83 167.88 129.15 169.10Q126.47 170.32 123.36 170.32L123.36 170.32Q120.25 170.32 117.60 169.10Q114.94 167.88 112.99 165.37Q111.04 162.87 109.94 159.03Q108.84 155.20 108.84 150L108.84 150Q108.84 144.77 109.94 140.95Q111.04 137.13 112.99 134.63Q114.94 132.13 117.60 130.90Q120.25 129.68 123.36 129.68L123.36 129.68Q126.47 129.68 129.15 130.90Q131.83 132.13 133.79 134.63Q135.76 137.13 136.87 140.95Q137.99 144.77 137.99 150ZM130.97 150L130.97 150Q130.97 145.68 130.34 142.85Q129.71 140.02 128.65 138.34Q127.59 136.66 126.22 135.99Q124.84 135.31 123.36 135.31L123.36 135.31Q121.90 135.31 120.54 135.99Q119.18 136.66 118.13 138.34Q117.09 140.02 116.47 142.85Q115.85 145.68 115.85 150L115.85 150Q115.85 154.32 116.47 157.15Q117.09 159.98 118.13 161.66Q119.18 163.34 120.54 164.01Q121.90 164.69 123.36 164.69L123.36 164.69Q124.84 164.69 126.22 164.01Q127.59 163.34 128.65 161.66Q129.71 159.98 130.34 157.15Q130.97 154.32 130.97 150ZM169.89 150L169.89 150Q169.89 155.20 168.77 159.03Q167.66 162.87 165.69 165.37Q163.73 167.88 161.05 169.10Q158.37 170.32 155.26 170.32L155.26 170.32Q152.15 170.32 149.50 169.10Q146.84 167.88 144.89 165.37Q142.94 162.87 141.84 159.03Q140.74 155.20 140.74 150L140.74 150Q140.74 144.77 141.84 140.95Q142.94 137.13 144.89 134.63Q146.84 132.13 149.50 130.90Q152.15 129.68 155.26 129.68L155.26 129.68Q158.37 129.68 161.05 130.90Q163.73 132.13 165.69 134.63Q167.66 137.13 168.77 140.95Q169.89 144.77 169.89 150ZM162.88 150L162.88 150Q162.88 145.68 162.24 142.85Q161.61 140.02 160.55 138.34Q159.49 136.66 158.12 135.99Q156.74 135.31 155.26 135.31L155.26 135.31Q153.80 135.31 152.44 135.99Q151.08 136.66 150.03 138.34Q148.99 140.02 148.37 142.85Q147.75 145.68 147.75 150L147.75 150Q147.75 154.32 148.37 157.15Q148.99 159.98 150.03 161.66Q151.08 163.34 152.44 164.01Q153.80 164.69 155.26 164.69L155.26 164.69Q156.74 164.69 158.12 164.01Q159.49 163.34 160.55 161.66Q161.61 159.98 162.24 157.15Q162.88 154.32 162.88 150ZM213.56 160.78L209.96 164.33L200.63 155.00L191.23 164.38L187.63 160.83L197.03 151.40L188.07 142.44L191.64 138.86L200.61 147.83L209.52 138.92L213.15 142.49L204.21 151.43L213.56 160.78ZM236.44 141.83L232.86 141.20Q233.28 138.34 234.46 136.18Q235.64 134.02 237.41 132.58Q239.19 131.13 241.48 130.41Q243.78 129.68 246.42 129.68L246.42 129.68Q249.17 129.68 251.38 130.46Q253.60 131.25 255.17 132.63Q256.73 134.02 257.57 135.89Q258.41 137.76 258.41 139.94L258.41 139.94Q258.41 141.83 257.98 143.28Q257.56 144.72 256.76 145.79Q255.96 146.86 254.78 147.61Q253.60 148.35 252.11 148.84L252.11 148.84Q255.69 149.97 257.45 152.28Q259.21 154.59 259.21 158.08L259.21 158.08Q259.21 161.06 258.11 163.34Q257.01 165.62 255.14 167.17Q253.27 168.73 250.81 169.53Q248.35 170.32 245.60 170.32L245.60 170.32Q242.60 170.32 240.37 169.63Q238.14 168.95 236.49 167.60Q234.84 166.25 233.69 164.30Q232.53 162.35 231.71 159.79L231.71 159.79L234.71 158.55Q235.89 158.06 236.92 158.29Q237.95 158.53 238.42 159.41L238.42 159.41Q238.91 160.37 239.50 161.30Q240.10 162.24 240.92 162.97Q241.75 163.69 242.86 164.15Q243.97 164.60 245.51 164.60L245.51 164.60Q247.25 164.60 248.54 164.04Q249.83 163.47 250.70 162.57Q251.56 161.66 251.99 160.55Q252.42 159.43 252.42 158.31L252.42 158.31Q252.42 156.88 252.11 155.71Q251.81 154.54 250.85 153.71Q249.89 152.89 248.08 152.42Q246.28 151.95 243.26 151.95L243.26 151.95L243.26 147.11Q245.76 147.08 247.41 146.64Q249.06 146.20 250.04 145.42Q251.01 144.64 251.40 143.54Q251.78 142.44 251.78 141.12L251.78 141.12Q251.78 138.31 250.22 136.85Q248.65 135.40 246.04 135.40L246.04 135.40Q244.83 135.40 243.81 135.74Q242.79 136.08 241.98 136.70Q241.17 137.32 240.62 138.15Q240.07 138.97 239.79 139.96L239.79 139.96Q239.33 141.23 238.57 141.64Q237.81 142.05 236.44 141.83L236.44 141.83ZM292.32 150L292.32 150Q292.32 155.20 291.20 159.03Q290.09 162.87 288.12 165.37Q286.16 167.88 283.48 169.10Q280.80 170.32 277.69 170.32L277.69 170.32Q274.58 170.32 271.93 169.10Q269.27 167.88 267.32 165.37Q265.37 162.87 264.27 159.03Q263.17 155.20 263.17 150L263.17 150Q263.17 144.77 264.27 140.95Q265.37 137.13 267.32 134.63Q269.27 132.13 271.93 130.90Q274.58 129.68 277.69 129.68L277.69 129.68Q280.80 129.68 283.48 130.90Q286.16 132.13 288.12 134.63Q290.09 137.13 291.20 140.95Q292.32 144.77 292.32 150ZM285.31 150L285.31 150Q285.31 145.68 284.67 142.85Q284.04 140.02 282.98 138.34Q281.92 136.66 280.55 135.99Q279.17 135.31 277.69 135.31L277.69 135.31Q276.23 135.31 274.87 135.99Q273.51 136.66 272.46 138.34Q271.42 140.02 270.80 142.85Q270.18 145.68 270.18 150L270.18 150Q270.18 154.32 270.80 157.15Q271.42 159.98 272.46 161.66Q273.51 163.34 274.87 164.01Q276.23 164.69 277.69 164.69L277.69 164.69Q279.17 164.69 280.55 164.01Q281.92 163.34 282.98 161.66Q284.04 159.98 284.67 157.15Q285.31 154.32 285.31 150ZM324.22 150L324.22 150Q324.22 155.20 323.10 159.03Q321.99 162.87 320.02 165.37Q318.06 167.88 315.38 169.10Q312.69 170.32 309.59 170.32L309.59 170.32Q306.48 170.32 303.83 169.10Q301.17 167.88 299.22 165.37Q297.27 162.87 296.17 159.03Q295.07 155.20 295.07 150L295.07 150Q295.07 144.77 296.17 140.95Q297.27 137.13 299.22 134.63Q301.17 132.13 303.83 130.90Q306.48 129.68 309.59 129.68L309.59 129.68Q312.69 129.68 315.38 130.90Q318.06 132.13 320.02 134.63Q321.99 137.13 323.10 140.95Q324.22 144.77 324.22 150ZM317.20 150L317.20 150Q317.20 145.68 316.57 142.85Q315.94 140.02 314.88 138.34Q313.82 136.66 312.45 135.99Q311.07 135.31 309.59 135.31L309.59 135.31Q308.13 135.31 306.77 135.99Q305.41 136.66 304.36 138.34Q303.32 140.02 302.70 142.85Q302.08 145.68 302.08 150L302.08 150Q302.08 154.32 302.70 157.15Q303.32 159.98 304.36 161.66Q305.41 163.34 306.77 164.01Q308.13 164.69 309.59 164.69L309.59 164.69Q311.07 164.69 312.45 164.01Q313.82 163.34 314.88 161.66Q315.94 159.98 316.57 157.15Q317.20 154.32 317.20 150Z" fill="#999999"/></svg>